<mxfile host="app.diagrams.net" modified="2024-01-02T14:47:04.579Z" agent="Mozilla/5.0 (X11; Ubuntu; Linux x86_64; rv:120.0) Gecko/20100101 Firefox/120.0" etag="XFpbPfVkT0t7G6aXrkTI" version="22.1.16" type="github">
  <diagram name="Page-1" id="szuRNDVLsLvM3TpF7tbm">
    <mxGraphModel dx="1195" dy="685" grid="1" gridSize="10" guides="1" tooltips="1" connect="1" arrows="1" fold="1" page="1" pageScale="1" pageWidth="827" pageHeight="1169" math="0" shadow="0">
      <root>
        <mxCell id="0" />
        <mxCell id="1" parent="0" />
        <mxCell id="pE1P7HuGi9HatpFTLg0J-5" value="" style="edgeStyle=orthogonalEdgeStyle;rounded=0;orthogonalLoop=1;jettySize=auto;html=1;" edge="1" parent="1" source="pE1P7HuGi9HatpFTLg0J-1" target="pE1P7HuGi9HatpFTLg0J-4">
          <mxGeometry relative="1" as="geometry" />
        </mxCell>
        <mxCell id="pE1P7HuGi9HatpFTLg0J-1" value="Inicjalizacja&lt;br&gt;&lt;div&gt;sensorów oraz&lt;/div&gt;&lt;div&gt;servera TCP&lt;br&gt;&lt;/div&gt;" style="rounded=1;whiteSpace=wrap;html=1;fillColor=#ffe6cc;strokeColor=#d79b00;" vertex="1" parent="1">
          <mxGeometry x="314" y="165" width="100" height="50" as="geometry" />
        </mxCell>
        <mxCell id="pE1P7HuGi9HatpFTLg0J-65" style="edgeStyle=orthogonalEdgeStyle;rounded=0;orthogonalLoop=1;jettySize=auto;html=1;entryX=0.5;entryY=0;entryDx=0;entryDy=0;" edge="1" parent="1" source="pE1P7HuGi9HatpFTLg0J-2" target="pE1P7HuGi9HatpFTLg0J-35">
          <mxGeometry relative="1" as="geometry" />
        </mxCell>
        <mxCell id="pE1P7HuGi9HatpFTLg0J-2" value="Załadowanie&lt;br&gt;parametrów klienta TCP" style="rounded=1;whiteSpace=wrap;html=1;fillColor=#ffe6cc;strokeColor=#d79b00;" vertex="1" parent="1">
          <mxGeometry x="560" y="165" width="100" height="50" as="geometry" />
        </mxCell>
        <mxCell id="pE1P7HuGi9HatpFTLg0J-84" style="edgeStyle=orthogonalEdgeStyle;rounded=0;orthogonalLoop=1;jettySize=auto;html=1;entryX=0.5;entryY=0;entryDx=0;entryDy=0;" edge="1" parent="1" source="pE1P7HuGi9HatpFTLg0J-3" target="pE1P7HuGi9HatpFTLg0J-67">
          <mxGeometry relative="1" as="geometry" />
        </mxCell>
        <mxCell id="pE1P7HuGi9HatpFTLg0J-3" value="Załadowanie parametrów&lt;br&gt;detektora" style="rounded=1;whiteSpace=wrap;html=1;fillColor=#ffe6cc;strokeColor=#d79b00;" vertex="1" parent="1">
          <mxGeometry x="750" y="165" width="100" height="50" as="geometry" />
        </mxCell>
        <mxCell id="pE1P7HuGi9HatpFTLg0J-9" value="" style="edgeStyle=orthogonalEdgeStyle;rounded=0;orthogonalLoop=1;jettySize=auto;html=1;" edge="1" parent="1" source="pE1P7HuGi9HatpFTLg0J-57" target="pE1P7HuGi9HatpFTLg0J-8">
          <mxGeometry relative="1" as="geometry" />
        </mxCell>
        <mxCell id="pE1P7HuGi9HatpFTLg0J-4" value="&lt;div&gt;Inicjalizacja zegara,&lt;/div&gt;&lt;div&gt;przerwanie z&lt;/div&gt;&lt;div&gt;częstotliwością 2.5kHz&lt;br&gt;&lt;/div&gt;" style="rounded=1;whiteSpace=wrap;html=1;" vertex="1" parent="1">
          <mxGeometry x="130" y="160" width="120" height="60" as="geometry" />
        </mxCell>
        <mxCell id="pE1P7HuGi9HatpFTLg0J-11" value="" style="edgeStyle=orthogonalEdgeStyle;rounded=0;orthogonalLoop=1;jettySize=auto;html=1;" edge="1" parent="1" source="pE1P7HuGi9HatpFTLg0J-8" target="pE1P7HuGi9HatpFTLg0J-10">
          <mxGeometry relative="1" as="geometry" />
        </mxCell>
        <mxCell id="pE1P7HuGi9HatpFTLg0J-8" value="Czekaj na przerwanie&lt;br&gt;zegara" style="rounded=1;whiteSpace=wrap;html=1;" vertex="1" parent="1">
          <mxGeometry x="135" y="320" width="90" height="50" as="geometry" />
        </mxCell>
        <mxCell id="pE1P7HuGi9HatpFTLg0J-12" style="edgeStyle=orthogonalEdgeStyle;rounded=0;orthogonalLoop=1;jettySize=auto;html=1;entryX=0;entryY=0.75;entryDx=0;entryDy=0;exitX=0;exitY=0.5;exitDx=0;exitDy=0;" edge="1" parent="1" source="pE1P7HuGi9HatpFTLg0J-10" target="pE1P7HuGi9HatpFTLg0J-8">
          <mxGeometry relative="1" as="geometry">
            <Array as="points">
              <mxPoint x="120" y="454" />
              <mxPoint x="120" y="358" />
              <mxPoint x="135" y="358" />
            </Array>
          </mxGeometry>
        </mxCell>
        <mxCell id="pE1P7HuGi9HatpFTLg0J-13" value="Nie" style="edgeLabel;html=1;align=center;verticalAlign=middle;resizable=0;points=[];" vertex="1" connectable="0" parent="pE1P7HuGi9HatpFTLg0J-12">
          <mxGeometry x="-0.0708" relative="1" as="geometry">
            <mxPoint as="offset" />
          </mxGeometry>
        </mxCell>
        <mxCell id="pE1P7HuGi9HatpFTLg0J-15" value="" style="edgeStyle=orthogonalEdgeStyle;rounded=0;orthogonalLoop=1;jettySize=auto;html=1;" edge="1" parent="1" source="pE1P7HuGi9HatpFTLg0J-10" target="pE1P7HuGi9HatpFTLg0J-14">
          <mxGeometry relative="1" as="geometry" />
        </mxCell>
        <mxCell id="pE1P7HuGi9HatpFTLg0J-18" value="Tak" style="edgeLabel;html=1;align=center;verticalAlign=middle;resizable=0;points=[];" vertex="1" connectable="0" parent="pE1P7HuGi9HatpFTLg0J-15">
          <mxGeometry x="0.6906" y="2" relative="1" as="geometry">
            <mxPoint x="-2" y="-11" as="offset" />
          </mxGeometry>
        </mxCell>
        <mxCell id="pE1P7HuGi9HatpFTLg0J-10" value="&lt;font style=&quot;font-size: 10px;&quot;&gt;Przerwanie&lt;/font&gt;" style="rhombus;whiteSpace=wrap;html=1;" vertex="1" parent="1">
          <mxGeometry x="140" y="414" width="80" height="80" as="geometry" />
        </mxCell>
        <mxCell id="pE1P7HuGi9HatpFTLg0J-17" value="" style="edgeStyle=orthogonalEdgeStyle;rounded=0;orthogonalLoop=1;jettySize=auto;html=1;" edge="1" parent="1" source="pE1P7HuGi9HatpFTLg0J-14" target="pE1P7HuGi9HatpFTLg0J-16">
          <mxGeometry relative="1" as="geometry" />
        </mxCell>
        <mxCell id="pE1P7HuGi9HatpFTLg0J-14" value="&lt;div&gt;Odczyt wartości z &lt;br&gt;&lt;/div&gt;&lt;div&gt;sensorów, zapis do tablicy&lt;br&gt;&lt;/div&gt;" style="rounded=1;whiteSpace=wrap;html=1;" vertex="1" parent="1">
          <mxGeometry x="135" y="530" width="100" height="50" as="geometry" />
        </mxCell>
        <mxCell id="pE1P7HuGi9HatpFTLg0J-19" style="edgeStyle=orthogonalEdgeStyle;rounded=0;orthogonalLoop=1;jettySize=auto;html=1;entryX=0;entryY=0.25;entryDx=0;entryDy=0;" edge="1" parent="1" source="pE1P7HuGi9HatpFTLg0J-16" target="pE1P7HuGi9HatpFTLg0J-8">
          <mxGeometry relative="1" as="geometry">
            <Array as="points">
              <mxPoint x="100" y="670" />
              <mxPoint x="100" y="335" />
              <mxPoint x="135" y="335" />
            </Array>
          </mxGeometry>
        </mxCell>
        <mxCell id="pE1P7HuGi9HatpFTLg0J-20" value="Nie" style="edgeLabel;html=1;align=center;verticalAlign=middle;resizable=0;points=[];" vertex="1" connectable="0" parent="pE1P7HuGi9HatpFTLg0J-19">
          <mxGeometry x="-0.8754" y="1" relative="1" as="geometry">
            <mxPoint as="offset" />
          </mxGeometry>
        </mxCell>
        <mxCell id="pE1P7HuGi9HatpFTLg0J-22" value="" style="edgeStyle=orthogonalEdgeStyle;rounded=0;orthogonalLoop=1;jettySize=auto;html=1;" edge="1" parent="1" source="pE1P7HuGi9HatpFTLg0J-16" target="pE1P7HuGi9HatpFTLg0J-21">
          <mxGeometry relative="1" as="geometry" />
        </mxCell>
        <mxCell id="pE1P7HuGi9HatpFTLg0J-23" value="Tak" style="edgeLabel;html=1;align=center;verticalAlign=middle;resizable=0;points=[];" vertex="1" connectable="0" parent="pE1P7HuGi9HatpFTLg0J-22">
          <mxGeometry x="-0.2566" y="-2" relative="1" as="geometry">
            <mxPoint as="offset" />
          </mxGeometry>
        </mxCell>
        <mxCell id="pE1P7HuGi9HatpFTLg0J-16" value="&lt;div style=&quot;font-size: 10px;&quot;&gt;&lt;font style=&quot;font-size: 10px;&quot;&gt;Zebrano&lt;/font&gt;&lt;/div&gt;&lt;div style=&quot;font-size: 10px;&quot;&gt;&lt;font style=&quot;font-size: 10px;&quot;&gt;5000&lt;/font&gt;&lt;/div&gt;&lt;div style=&quot;font-size: 10px;&quot;&gt;&lt;font style=&quot;font-size: 10px;&quot;&gt;próbek?&lt;font style=&quot;font-size: 10px;&quot;&gt;&lt;br&gt;&lt;/font&gt;&lt;/font&gt;&lt;/div&gt;" style="rhombus;whiteSpace=wrap;html=1;" vertex="1" parent="1">
          <mxGeometry x="145" y="630" width="80" height="80" as="geometry" />
        </mxCell>
        <mxCell id="pE1P7HuGi9HatpFTLg0J-25" value="" style="edgeStyle=orthogonalEdgeStyle;rounded=0;orthogonalLoop=1;jettySize=auto;html=1;" edge="1" parent="1" source="pE1P7HuGi9HatpFTLg0J-21" target="pE1P7HuGi9HatpFTLg0J-24">
          <mxGeometry relative="1" as="geometry" />
        </mxCell>
        <mxCell id="pE1P7HuGi9HatpFTLg0J-21" value="&lt;div&gt;Przejście w stan:&lt;/div&gt;&lt;div&gt;Wysyłanie danych&lt;br&gt;&lt;/div&gt;" style="rounded=1;whiteSpace=wrap;html=1;fillColor=#dae8fc;strokeColor=#6c8ebf;" vertex="1" parent="1">
          <mxGeometry x="280" y="645" width="100" height="50" as="geometry" />
        </mxCell>
        <mxCell id="pE1P7HuGi9HatpFTLg0J-30" value="" style="edgeStyle=orthogonalEdgeStyle;rounded=0;orthogonalLoop=1;jettySize=auto;html=1;" edge="1" parent="1" source="pE1P7HuGi9HatpFTLg0J-24" target="pE1P7HuGi9HatpFTLg0J-29">
          <mxGeometry relative="1" as="geometry" />
        </mxCell>
        <mxCell id="pE1P7HuGi9HatpFTLg0J-24" value="Przygotowanie pakietu 20 odczytów do wysyłki" style="rounded=1;whiteSpace=wrap;html=1;" vertex="1" parent="1">
          <mxGeometry x="275" y="565" width="110" height="50" as="geometry" />
        </mxCell>
        <mxCell id="pE1P7HuGi9HatpFTLg0J-34" value="" style="edgeStyle=orthogonalEdgeStyle;rounded=0;orthogonalLoop=1;jettySize=auto;html=1;exitX=1;exitY=0;exitDx=0;exitDy=0;" edge="1" parent="1" source="pE1P7HuGi9HatpFTLg0J-53" target="pE1P7HuGi9HatpFTLg0J-33">
          <mxGeometry relative="1" as="geometry">
            <Array as="points">
              <mxPoint x="390" y="374" />
            </Array>
          </mxGeometry>
        </mxCell>
        <mxCell id="pE1P7HuGi9HatpFTLg0J-42" value="Nie" style="edgeLabel;html=1;align=center;verticalAlign=middle;resizable=0;points=[];" vertex="1" connectable="0" parent="pE1P7HuGi9HatpFTLg0J-34">
          <mxGeometry x="0.133" y="-2" relative="1" as="geometry">
            <mxPoint as="offset" />
          </mxGeometry>
        </mxCell>
        <mxCell id="pE1P7HuGi9HatpFTLg0J-29" value="&lt;div&gt;&lt;font style=&quot;font-size: 10px;&quot;&gt;Zapytanie&amp;nbsp;&lt;/font&gt;&lt;/div&gt;&lt;div&gt;&lt;font style=&quot;font-size: 10px;&quot;&gt;klienta o &lt;/font&gt;&lt;/div&gt;&lt;font style=&quot;font-size: 10px;&quot;&gt;dane?&lt;br&gt;&lt;/font&gt;" style="rhombus;whiteSpace=wrap;html=1;" vertex="1" parent="1">
          <mxGeometry x="290" y="460" width="80" height="80" as="geometry" />
        </mxCell>
        <mxCell id="pE1P7HuGi9HatpFTLg0J-31" value="" style="curved=1;endArrow=classic;html=1;rounded=0;exitX=0.616;exitY=0.1;exitDx=0;exitDy=0;entryX=0.952;entryY=0.401;entryDx=0;entryDy=0;entryPerimeter=0;exitPerimeter=0;" edge="1" parent="1" source="pE1P7HuGi9HatpFTLg0J-29" target="pE1P7HuGi9HatpFTLg0J-29">
          <mxGeometry width="50" height="50" relative="1" as="geometry">
            <mxPoint x="400" y="440" as="sourcePoint" />
            <mxPoint x="450" y="390" as="targetPoint" />
            <Array as="points">
              <mxPoint x="400" y="430" />
              <mxPoint x="440" y="470" />
            </Array>
          </mxGeometry>
        </mxCell>
        <mxCell id="pE1P7HuGi9HatpFTLg0J-32" value="Nie: Czekaj" style="edgeLabel;html=1;align=center;verticalAlign=middle;resizable=0;points=[];" vertex="1" connectable="0" parent="pE1P7HuGi9HatpFTLg0J-31">
          <mxGeometry x="-0.0261" y="1" relative="1" as="geometry">
            <mxPoint as="offset" />
          </mxGeometry>
        </mxCell>
        <mxCell id="pE1P7HuGi9HatpFTLg0J-46" style="edgeStyle=orthogonalEdgeStyle;rounded=0;orthogonalLoop=1;jettySize=auto;html=1;entryX=0.5;entryY=0;entryDx=0;entryDy=0;" edge="1" parent="1" source="pE1P7HuGi9HatpFTLg0J-33" target="pE1P7HuGi9HatpFTLg0J-45">
          <mxGeometry relative="1" as="geometry">
            <Array as="points">
              <mxPoint x="480" y="280" />
              <mxPoint x="480" y="540" />
              <mxPoint x="610" y="540" />
            </Array>
          </mxGeometry>
        </mxCell>
        <mxCell id="pE1P7HuGi9HatpFTLg0J-48" style="edgeStyle=orthogonalEdgeStyle;rounded=0;orthogonalLoop=1;jettySize=auto;html=1;exitX=1;exitY=0.5;exitDx=0;exitDy=0;entryX=0.5;entryY=0;entryDx=0;entryDy=0;" edge="1" parent="1" source="pE1P7HuGi9HatpFTLg0J-33" target="pE1P7HuGi9HatpFTLg0J-47">
          <mxGeometry relative="1" as="geometry">
            <Array as="points">
              <mxPoint x="440" y="265" />
              <mxPoint x="440" y="280" />
              <mxPoint x="480" y="280" />
            </Array>
          </mxGeometry>
        </mxCell>
        <mxCell id="pE1P7HuGi9HatpFTLg0J-33" value="&lt;div&gt;Wysyłka pakietu&lt;/div&gt;&lt;div&gt;do klienta TCP&lt;/div&gt;" style="rounded=1;whiteSpace=wrap;html=1;" vertex="1" parent="1">
          <mxGeometry x="370" y="240" width="90" height="50" as="geometry" />
        </mxCell>
        <mxCell id="pE1P7HuGi9HatpFTLg0J-37" value="" style="edgeStyle=orthogonalEdgeStyle;rounded=0;orthogonalLoop=1;jettySize=auto;html=1;" edge="1" parent="1" source="pE1P7HuGi9HatpFTLg0J-35" target="pE1P7HuGi9HatpFTLg0J-36">
          <mxGeometry relative="1" as="geometry" />
        </mxCell>
        <mxCell id="pE1P7HuGi9HatpFTLg0J-35" value="Inicjalizacja połączenia z serwerem" style="rounded=1;whiteSpace=wrap;html=1;" vertex="1" parent="1">
          <mxGeometry x="565" y="240" width="90" height="50" as="geometry" />
        </mxCell>
        <mxCell id="pE1P7HuGi9HatpFTLg0J-38" style="edgeStyle=orthogonalEdgeStyle;rounded=0;orthogonalLoop=1;jettySize=auto;html=1;" edge="1" parent="1" source="pE1P7HuGi9HatpFTLg0J-36">
          <mxGeometry relative="1" as="geometry">
            <mxPoint x="560" y="270" as="targetPoint" />
            <Array as="points">
              <mxPoint x="530" y="365" />
              <mxPoint x="530" y="270" />
            </Array>
          </mxGeometry>
        </mxCell>
        <mxCell id="pE1P7HuGi9HatpFTLg0J-39" value="Nie" style="edgeLabel;html=1;align=center;verticalAlign=middle;resizable=0;points=[];" vertex="1" connectable="0" parent="pE1P7HuGi9HatpFTLg0J-38">
          <mxGeometry x="-0.7333" y="-1" relative="1" as="geometry">
            <mxPoint as="offset" />
          </mxGeometry>
        </mxCell>
        <mxCell id="pE1P7HuGi9HatpFTLg0J-43" value="" style="edgeStyle=orthogonalEdgeStyle;rounded=0;orthogonalLoop=1;jettySize=auto;html=1;" edge="1" parent="1" source="pE1P7HuGi9HatpFTLg0J-36" target="pE1P7HuGi9HatpFTLg0J-40">
          <mxGeometry relative="1" as="geometry" />
        </mxCell>
        <mxCell id="pE1P7HuGi9HatpFTLg0J-44" value="Tak" style="edgeLabel;html=1;align=center;verticalAlign=middle;resizable=0;points=[];" vertex="1" connectable="0" parent="pE1P7HuGi9HatpFTLg0J-43">
          <mxGeometry x="-0.6076" y="1" relative="1" as="geometry">
            <mxPoint as="offset" />
          </mxGeometry>
        </mxCell>
        <mxCell id="pE1P7HuGi9HatpFTLg0J-36" value="&lt;div style=&quot;font-size: 11px;&quot;&gt;&lt;font style=&quot;font-size: 11px;&quot;&gt;Pomyślna&lt;/font&gt;&lt;/div&gt;&lt;div style=&quot;font-size: 11px;&quot;&gt;&lt;font style=&quot;font-size: 11px;&quot;&gt;inicjalizacja?&lt;font style=&quot;font-size: 11px;&quot;&gt;&lt;br&gt;&lt;/font&gt;&lt;/font&gt;&lt;/div&gt;" style="rhombus;whiteSpace=wrap;html=1;" vertex="1" parent="1">
          <mxGeometry x="570" y="310" width="80" height="80" as="geometry" />
        </mxCell>
        <mxCell id="pE1P7HuGi9HatpFTLg0J-41" value="" style="edgeStyle=orthogonalEdgeStyle;rounded=0;orthogonalLoop=1;jettySize=auto;html=1;shape=flexArrow;width=4.827586206896552;endSize=5.620689655172415;" edge="1" parent="1" source="pE1P7HuGi9HatpFTLg0J-40" target="pE1P7HuGi9HatpFTLg0J-29">
          <mxGeometry relative="1" as="geometry" />
        </mxCell>
        <mxCell id="pE1P7HuGi9HatpFTLg0J-40" value="&lt;div&gt;Zapytanie serwera&lt;/div&gt;&lt;div&gt;o pakiet danych&lt;br&gt;&lt;/div&gt;" style="rounded=1;whiteSpace=wrap;html=1;" vertex="1" parent="1">
          <mxGeometry x="560" y="477" width="100" height="46" as="geometry" />
        </mxCell>
        <mxCell id="pE1P7HuGi9HatpFTLg0J-51" value="" style="edgeStyle=orthogonalEdgeStyle;rounded=0;orthogonalLoop=1;jettySize=auto;html=1;" edge="1" parent="1" source="pE1P7HuGi9HatpFTLg0J-45" target="pE1P7HuGi9HatpFTLg0J-50">
          <mxGeometry relative="1" as="geometry" />
        </mxCell>
        <mxCell id="pE1P7HuGi9HatpFTLg0J-45" value="Odebranie pakietu&lt;br&gt;przez klienta TCP" style="rounded=1;whiteSpace=wrap;html=1;" vertex="1" parent="1">
          <mxGeometry x="560" y="565" width="100" height="50" as="geometry" />
        </mxCell>
        <mxCell id="pE1P7HuGi9HatpFTLg0J-49" value="" style="edgeStyle=orthogonalEdgeStyle;rounded=0;orthogonalLoop=1;jettySize=auto;html=1;" edge="1" parent="1" source="pE1P7HuGi9HatpFTLg0J-47" target="pE1P7HuGi9HatpFTLg0J-24">
          <mxGeometry relative="1" as="geometry" />
        </mxCell>
        <mxCell id="pE1P7HuGi9HatpFTLg0J-47" value="&lt;div style=&quot;font-size: 11px;&quot;&gt;&lt;font style=&quot;font-size: 11px;&quot;&gt;zwiększ indeks&lt;/font&gt;&lt;/div&gt;&lt;div style=&quot;font-size: 11px;&quot;&gt;&lt;font style=&quot;font-size: 11px;&quot;&gt;pakietu&lt;br&gt;(przygotuj kolejne&lt;/font&gt;&lt;/div&gt;&lt;div style=&quot;font-size: 11px;&quot;&gt;&lt;font style=&quot;font-size: 11px;&quot;&gt;20 odczytów)&lt;font style=&quot;font-size: 11px;&quot;&gt;&lt;br&gt;&lt;/font&gt;&lt;/font&gt;&lt;/div&gt;" style="shape=parallelogram;perimeter=parallelogramPerimeter;whiteSpace=wrap;html=1;fixedSize=1;size=10.000000000000227;" vertex="1" parent="1">
          <mxGeometry x="420" y="560" width="120" height="60" as="geometry" />
        </mxCell>
        <mxCell id="pE1P7HuGi9HatpFTLg0J-52" style="edgeStyle=orthogonalEdgeStyle;rounded=0;orthogonalLoop=1;jettySize=auto;html=1;entryX=1;entryY=0.5;entryDx=0;entryDy=0;" edge="1" parent="1" source="pE1P7HuGi9HatpFTLg0J-50" target="pE1P7HuGi9HatpFTLg0J-40">
          <mxGeometry relative="1" as="geometry">
            <Array as="points">
              <mxPoint x="690" y="670" />
              <mxPoint x="690" y="500" />
            </Array>
          </mxGeometry>
        </mxCell>
        <mxCell id="pE1P7HuGi9HatpFTLg0J-50" value="&lt;div&gt;Publikacja otrzymanego pakietu&lt;/div&gt;&lt;div&gt;na temat (ROS) &quot;acc_readings&quot;&lt;br&gt;&lt;/div&gt;" style="rounded=1;whiteSpace=wrap;html=1;" vertex="1" parent="1">
          <mxGeometry x="550" y="640" width="120" height="60" as="geometry" />
        </mxCell>
        <mxCell id="pE1P7HuGi9HatpFTLg0J-54" value="" style="edgeStyle=orthogonalEdgeStyle;rounded=0;orthogonalLoop=1;jettySize=auto;html=1;" edge="1" parent="1" source="pE1P7HuGi9HatpFTLg0J-29" target="pE1P7HuGi9HatpFTLg0J-53">
          <mxGeometry relative="1" as="geometry">
            <mxPoint x="380" y="414" as="sourcePoint" />
            <mxPoint x="380" y="300" as="targetPoint" />
          </mxGeometry>
        </mxCell>
        <mxCell id="pE1P7HuGi9HatpFTLg0J-56" value="Tak" style="edgeLabel;html=1;align=center;verticalAlign=middle;resizable=0;points=[];" vertex="1" connectable="0" parent="pE1P7HuGi9HatpFTLg0J-54">
          <mxGeometry x="-0.3541" relative="1" as="geometry">
            <mxPoint as="offset" />
          </mxGeometry>
        </mxCell>
        <mxCell id="pE1P7HuGi9HatpFTLg0J-59" style="edgeStyle=orthogonalEdgeStyle;rounded=0;orthogonalLoop=1;jettySize=auto;html=1;entryX=1;entryY=0.5;entryDx=0;entryDy=0;exitX=0.5;exitY=0;exitDx=0;exitDy=0;" edge="1" parent="1" source="pE1P7HuGi9HatpFTLg0J-63" target="pE1P7HuGi9HatpFTLg0J-57">
          <mxGeometry relative="1" as="geometry">
            <Array as="points">
              <mxPoint x="280" y="300" />
              <mxPoint x="280" y="265" />
            </Array>
          </mxGeometry>
        </mxCell>
        <mxCell id="pE1P7HuGi9HatpFTLg0J-53" value="&lt;font style=&quot;font-size: 10px;&quot;&gt;Wysłano&lt;br&gt;wszystkie&lt;br&gt;próbki?&lt;/font&gt;" style="rhombus;whiteSpace=wrap;html=1;" vertex="1" parent="1">
          <mxGeometry x="290" y="354" width="80" height="80" as="geometry" />
        </mxCell>
        <mxCell id="pE1P7HuGi9HatpFTLg0J-58" value="" style="edgeStyle=orthogonalEdgeStyle;rounded=0;orthogonalLoop=1;jettySize=auto;html=1;" edge="1" parent="1" target="pE1P7HuGi9HatpFTLg0J-57">
          <mxGeometry relative="1" as="geometry">
            <mxPoint x="195" y="220" as="sourcePoint" />
            <mxPoint x="195" y="320" as="targetPoint" />
          </mxGeometry>
        </mxCell>
        <mxCell id="pE1P7HuGi9HatpFTLg0J-57" value="&lt;div&gt;Przejście w stan:&lt;/div&gt;&lt;div&gt;Zbieranie danych&lt;br&gt;&lt;/div&gt;" style="rounded=1;whiteSpace=wrap;html=1;fillColor=#dae8fc;strokeColor=#6c8ebf;" vertex="1" parent="1">
          <mxGeometry x="135" y="240" width="100" height="50" as="geometry" />
        </mxCell>
        <mxCell id="pE1P7HuGi9HatpFTLg0J-61" value="" style="edgeStyle=orthogonalEdgeStyle;rounded=0;orthogonalLoop=1;jettySize=auto;html=1;entryX=0.5;entryY=1;entryDx=0;entryDy=0;" edge="1" parent="1" source="pE1P7HuGi9HatpFTLg0J-53" target="pE1P7HuGi9HatpFTLg0J-63">
          <mxGeometry relative="1" as="geometry">
            <mxPoint x="340" y="374" as="sourcePoint" />
            <mxPoint x="290" y="390" as="targetPoint" />
            <Array as="points">
              <mxPoint x="305" y="370" />
            </Array>
          </mxGeometry>
        </mxCell>
        <mxCell id="pE1P7HuGi9HatpFTLg0J-62" value="Tak" style="edgeLabel;html=1;align=center;verticalAlign=middle;resizable=0;points=[];" vertex="1" connectable="0" parent="pE1P7HuGi9HatpFTLg0J-61">
          <mxGeometry x="-0.6701" y="-2" relative="1" as="geometry">
            <mxPoint x="-14" y="-8" as="offset" />
          </mxGeometry>
        </mxCell>
        <mxCell id="pE1P7HuGi9HatpFTLg0J-63" value="&lt;font style=&quot;font-size: 10px;&quot;&gt;Zerowanie tablicy zmiennych na mikrokontrolerze&lt;br&gt;&lt;/font&gt;" style="shape=parallelogram;perimeter=parallelogramPerimeter;whiteSpace=wrap;html=1;fixedSize=1;size=10;" vertex="1" parent="1">
          <mxGeometry x="250" y="300" width="110" height="40" as="geometry" />
        </mxCell>
        <mxCell id="pE1P7HuGi9HatpFTLg0J-74" value="" style="edgeStyle=orthogonalEdgeStyle;rounded=0;orthogonalLoop=1;jettySize=auto;html=1;" edge="1" parent="1" source="pE1P7HuGi9HatpFTLg0J-67" target="pE1P7HuGi9HatpFTLg0J-70">
          <mxGeometry relative="1" as="geometry" />
        </mxCell>
        <mxCell id="pE1P7HuGi9HatpFTLg0J-67" value="&lt;div&gt;Nasłuchiwanie&lt;br&gt;&lt;/div&gt;&lt;div&gt;tematu&lt;br&gt;&quot;acc_readings&quot;&lt;br&gt;&lt;/div&gt;" style="rounded=1;whiteSpace=wrap;html=1;" vertex="1" parent="1">
          <mxGeometry x="750" y="245" width="100" height="50" as="geometry" />
        </mxCell>
        <mxCell id="pE1P7HuGi9HatpFTLg0J-75" style="edgeStyle=orthogonalEdgeStyle;rounded=0;orthogonalLoop=1;jettySize=auto;html=1;entryX=1.001;entryY=0.612;entryDx=0;entryDy=0;entryPerimeter=0;" edge="1" parent="1" source="pE1P7HuGi9HatpFTLg0J-70" target="pE1P7HuGi9HatpFTLg0J-67">
          <mxGeometry relative="1" as="geometry">
            <Array as="points">
              <mxPoint x="870" y="370" />
              <mxPoint x="870" y="276" />
            </Array>
          </mxGeometry>
        </mxCell>
        <mxCell id="pE1P7HuGi9HatpFTLg0J-76" value="Nie" style="edgeLabel;html=1;align=center;verticalAlign=middle;resizable=0;points=[];" vertex="1" connectable="0" parent="pE1P7HuGi9HatpFTLg0J-75">
          <mxGeometry x="-0.1075" relative="1" as="geometry">
            <mxPoint as="offset" />
          </mxGeometry>
        </mxCell>
        <mxCell id="pE1P7HuGi9HatpFTLg0J-78" value="" style="edgeStyle=orthogonalEdgeStyle;rounded=0;orthogonalLoop=1;jettySize=auto;html=1;" edge="1" parent="1" source="pE1P7HuGi9HatpFTLg0J-70" target="pE1P7HuGi9HatpFTLg0J-77">
          <mxGeometry relative="1" as="geometry" />
        </mxCell>
        <mxCell id="pE1P7HuGi9HatpFTLg0J-86" value="Tak" style="edgeLabel;html=1;align=center;verticalAlign=middle;resizable=0;points=[];" vertex="1" connectable="0" parent="pE1P7HuGi9HatpFTLg0J-78">
          <mxGeometry x="0.6503" relative="1" as="geometry">
            <mxPoint y="-11" as="offset" />
          </mxGeometry>
        </mxCell>
        <mxCell id="pE1P7HuGi9HatpFTLg0J-70" value="&lt;font style=&quot;font-size: 10px;&quot;&gt;Nowa publikacja?&lt;/font&gt;" style="rhombus;whiteSpace=wrap;html=1;" vertex="1" parent="1">
          <mxGeometry x="760" y="315" width="80" height="80" as="geometry" />
        </mxCell>
        <mxCell id="pE1P7HuGi9HatpFTLg0J-73" value="" style="edgeStyle=orthogonalEdgeStyle;rounded=0;orthogonalLoop=1;jettySize=auto;html=1;dashed=1;dashPattern=1 1;" edge="1" parent="1" source="pE1P7HuGi9HatpFTLg0J-71" target="pE1P7HuGi9HatpFTLg0J-70">
          <mxGeometry relative="1" as="geometry" />
        </mxCell>
        <mxCell id="pE1P7HuGi9HatpFTLg0J-71" value="tematy&lt;br&gt;ROS" style="ellipse;shape=cloud;whiteSpace=wrap;html=1;" vertex="1" parent="1">
          <mxGeometry x="670" y="330" width="80" height="50" as="geometry" />
        </mxCell>
        <mxCell id="pE1P7HuGi9HatpFTLg0J-72" style="edgeStyle=orthogonalEdgeStyle;rounded=0;orthogonalLoop=1;jettySize=auto;html=1;exitX=1;exitY=0.75;exitDx=0;exitDy=0;dashed=1;dashPattern=1 1;entryX=0.373;entryY=0.923;entryDx=0;entryDy=0;entryPerimeter=0;" edge="1" parent="1" target="pE1P7HuGi9HatpFTLg0J-71">
          <mxGeometry relative="1" as="geometry">
            <mxPoint x="670" y="691" as="sourcePoint" />
            <mxPoint x="700" y="389" as="targetPoint" />
            <Array as="points">
              <mxPoint x="700" y="691" />
            </Array>
          </mxGeometry>
        </mxCell>
        <mxCell id="pE1P7HuGi9HatpFTLg0J-80" value="" style="edgeStyle=orthogonalEdgeStyle;rounded=0;orthogonalLoop=1;jettySize=auto;html=1;entryX=0.5;entryY=0;entryDx=0;entryDy=0;" edge="1" parent="1" source="pE1P7HuGi9HatpFTLg0J-91" target="pE1P7HuGi9HatpFTLg0J-82">
          <mxGeometry relative="1" as="geometry">
            <mxPoint x="810" y="515" as="targetPoint" />
          </mxGeometry>
        </mxCell>
        <mxCell id="pE1P7HuGi9HatpFTLg0J-77" value="&lt;div&gt;Rozszerz tablice danych&lt;br&gt;&lt;/div&gt;&lt;div&gt;o nowy pakiet&lt;br&gt;&lt;/div&gt;" style="rounded=1;whiteSpace=wrap;html=1;" vertex="1" parent="1">
          <mxGeometry x="745" y="428" width="110" height="52" as="geometry" />
        </mxCell>
        <mxCell id="pE1P7HuGi9HatpFTLg0J-81" value="&lt;div&gt;Zapis tablicy danych&lt;/div&gt;&lt;div&gt;do pliku csv&lt;br&gt;&lt;/div&gt;" style="rounded=1;whiteSpace=wrap;html=1;" vertex="1" parent="1">
          <mxGeometry x="760" y="665" width="80" height="50" as="geometry" />
        </mxCell>
        <mxCell id="pE1P7HuGi9HatpFTLg0J-85" style="edgeStyle=orthogonalEdgeStyle;rounded=0;orthogonalLoop=1;jettySize=auto;html=1;" edge="1" parent="1" source="pE1P7HuGi9HatpFTLg0J-82">
          <mxGeometry relative="1" as="geometry">
            <mxPoint x="850" y="260" as="targetPoint" />
            <Array as="points">
              <mxPoint x="890" y="605" />
              <mxPoint x="890" y="260" />
            </Array>
          </mxGeometry>
        </mxCell>
        <mxCell id="pE1P7HuGi9HatpFTLg0J-88" value="Nie" style="edgeLabel;html=1;align=center;verticalAlign=middle;resizable=0;points=[];" vertex="1" connectable="0" parent="pE1P7HuGi9HatpFTLg0J-85">
          <mxGeometry x="-0.8989" y="1" relative="1" as="geometry">
            <mxPoint x="37" y="-62" as="offset" />
          </mxGeometry>
        </mxCell>
        <mxCell id="pE1P7HuGi9HatpFTLg0J-94" value="" style="edgeStyle=orthogonalEdgeStyle;rounded=0;orthogonalLoop=1;jettySize=auto;html=1;" edge="1" parent="1" source="pE1P7HuGi9HatpFTLg0J-82" target="pE1P7HuGi9HatpFTLg0J-81">
          <mxGeometry relative="1" as="geometry" />
        </mxCell>
        <mxCell id="pE1P7HuGi9HatpFTLg0J-95" value="Tak" style="edgeLabel;html=1;align=center;verticalAlign=middle;resizable=0;points=[];" vertex="1" connectable="0" parent="pE1P7HuGi9HatpFTLg0J-94">
          <mxGeometry x="0.1852" y="-1" relative="1" as="geometry">
            <mxPoint as="offset" />
          </mxGeometry>
        </mxCell>
        <mxCell id="pE1P7HuGi9HatpFTLg0J-82" value="&lt;font style=&quot;font-size: 10px;&quot;&gt;Zatrzymanie&lt;br&gt;programu?&lt;/font&gt;" style="rhombus;whiteSpace=wrap;html=1;" vertex="1" parent="1">
          <mxGeometry x="760" y="556" width="80" height="80" as="geometry" />
        </mxCell>
        <mxCell id="pE1P7HuGi9HatpFTLg0J-90" value="" style="edgeStyle=orthogonalEdgeStyle;rounded=0;orthogonalLoop=1;jettySize=auto;html=1;entryX=0.5;entryY=0;entryDx=0;entryDy=0;" edge="1" parent="1" source="pE1P7HuGi9HatpFTLg0J-77" target="pE1P7HuGi9HatpFTLg0J-91">
          <mxGeometry relative="1" as="geometry">
            <mxPoint x="810" y="499" as="sourcePoint" />
            <mxPoint x="810" y="601" as="targetPoint" />
          </mxGeometry>
        </mxCell>
        <mxCell id="pE1P7HuGi9HatpFTLg0J-91" value="Co 5000 próbek&lt;br&gt;&lt;div&gt;dokonaj detekcji,&lt;/div&gt;&lt;div&gt;wypisanie predykcji&lt;br&gt;&lt;/div&gt;" style="rounded=1;whiteSpace=wrap;html=1;" vertex="1" parent="1">
          <mxGeometry x="745" y="492" width="110" height="50" as="geometry" />
        </mxCell>
      </root>
    </mxGraphModel>
  </diagram>
</mxfile>
